<svg height="20" width="20" xmlns="http://www.w3.org/2000/svg" xmlns:xlink="http://www.w3.org/1999/xlink"><mask id="a" fill="#fff"><path d="m.5 6.534c0 2.29 1.687 5.56 5.06 9.813a1.2 1.2 0 0 0 1.88 0c3.373-4.252 5.06-7.523 5.06-9.813 0-3.24-2.5-5.734-6-5.734s-6 2.493-6 5.734z" fill="#fff" fill-rule="evenodd"/></mask><g fill="none" fill-rule="evenodd" opacity=".8"><path d="m0 0h20v20h-20z" opacity=".4"/><g stroke="#828a99" stroke-width="1.8" transform="translate(3.5 1)"><path d="m-.4 6.534c0-3.781 2.947-6.634 6.9-6.634s6.9 2.853 6.9 6.634c0 2.551-1.764 5.972-5.255 10.372a2.1 2.1 0 0 1 -3.29 0c-3.49-4.4-5.255-7.82-5.255-10.372z"/><path d="m3.6 6.8a2.9 2.9 0 1 1 5.801.001 2.9 2.9 0 0 1 -5.801-.001z" mask="url(#a)"/></g></g></svg>