<svg height="20" viewBox="0 0 20 20" width="20" xmlns="http://www.w3.org/2000/svg"><g fill="none" fill-rule="evenodd"><path d="m0 0h20v20h-20z"/><path d="m10 2.8c-3.9764502 0-7.2 3.2235498-7.2 7.2s3.2235498 7.2 7.2 7.2 7.2-3.2235498 7.2-7.2-3.2235498-7.2-7.2-7.2zm0-1.8c4.9705627 0 9 4.02943725 9 9 0 4.9705627-4.0294373 9-9 9-4.97056275 0-9-4.0294373-9-9 0-4.97056275 4.02943725-9 9-9zm2.6293549 10.3721379-1.8293553-1.3304401v-3.1416977c0-.49705628-.4029437-.9-.89999998-.9s-.9.40294372-.9.9v3.5999999c0 .2879429.13777565.5585026.37064551.7278625l2.20000077 1.6000004c.4019874.2923544.9648626.2034793 1.257217-.198508.2923544-.4019874.2034793-.9648626-.198508-1.257217z" fill="#828a99" fill-rule="nonzero"/></g></svg>